<svg width="16" height="16" viewBox="0 0 16 16" fill="none" xmlns="http://www.w3.org/2000/svg">
<g id="boom-play">
<path id="Subtract" fill-rule="evenodd" clip-rule="evenodd" d="M13.5 10.9865C13.5 9.05405 11.949 7.47297 10.0534 7.47297C11.6388 7.4027 12.8451 6.06757 12.8451 4.48649C12.8451 2.83514 11.5699 1.5 9.95 1.5H5.883C5.67621 1.5 5.46941 1.64054 5.43494 1.85135L5.15415 3.15992L8.77667 3.57408C8.78326 3.57483 8.78971 3.57595 8.79602 3.57742C9.46908 3.63315 9.99825 4.20764 9.99825 4.90812C9.99825 5.6455 9.41187 6.24326 8.68854 6.24326C7.96521 6.24326 7.37883 5.6455 7.37883 4.90812C7.37883 4.46492 7.59066 4.07216 7.91675 3.82932L5.08009 3.50501L3.99197 8.57586L8.46659 9.09031C8.47706 9.09152 8.48719 9.09365 8.49693 9.09662C9.30074 9.17511 9.92932 9.86543 9.92932 10.7054C9.92932 11.598 9.21949 12.3216 8.34388 12.3216C7.46827 12.3216 6.75844 11.598 6.75844 10.7054C6.75844 10.1266 7.0569 9.61886 7.5055 9.33339L3.91793 8.92092L3.02232 13.0946C2.88446 13.8324 3.40145 14.5 4.12523 14.5H10.0534C11.949 14.5 13.5 12.9189 13.5 10.9865Z" fill="#00FFFF"/>
</g>
</svg>
