<?xml version="1.0" encoding="UTF-8"?>
<!DOCTYPE svg PUBLIC "-//W3C//DTD SVG 1.1//EN" "http://www.w3.org/Graphics/SVG/1.1/DTD/svg11.dtd">
<svg xmlns="http://www.w3.org/2000/svg" version="1.1" width="512px" height="512px" style="shape-rendering:geometricPrecision; text-rendering:geometricPrecision; image-rendering:optimizeQuality; fill-rule:evenodd; clip-rule:evenodd" xmlns:xlink="http://www.w3.org/1999/xlink">
<g><path style="opacity:0.977" fill="#000000" d="M 508.5,41.5 C 508.519,48.5306 509.019,48.864 510,42.5C 510.186,45.0356 510.686,47.369 511.5,49.5C 511.5,186.833 511.5,324.167 511.5,461.5C 506.509,489.824 489.842,506.491 461.5,511.5C 324.167,511.5 186.833,511.5 49.5,511.5C 21.1576,506.491 4.49095,489.824 -0.5,461.5C -0.5,324.167 -0.5,186.833 -0.5,49.5C 0.313823,47.369 0.813823,45.0356 1,42.5C 1.98118,48.864 2.48118,48.5306 2.5,41.5C 3.80086,40.1155 3.80086,38.6155 2.5,37C 3.66894,34.1408 5.16894,30.9742 7,27.5C 7.33333,27.8333 7.66667,28.1667 8,28.5C 9.85858,25.2542 11.5252,21.9209 13,18.5C 13.3333,19.1667 13.6667,19.8333 14,20.5C 15.25,17.8293 17.0833,15.6626 19.5,14C 18.1667,13.3333 18.1667,12.6667 19.5,12C 20.4491,11.3828 21.2825,11.5494 22,12.5C 24.9924,10.1688 27.9924,7.83551 31,5.5C 34.7731,4.13114 38.6065,2.96448 42.5,2C 113.474,0.844625 184.474,0.344625 255.5,0.5C 326.526,0.344625 397.526,0.844625 468.5,2C 472.394,2.96448 476.227,4.13114 480,5.5C 483.008,7.83551 486.008,10.1688 489,12.5C 489.718,11.5494 490.551,11.3828 491.5,12C 492.833,12.6667 492.833,13.3333 491.5,14C 493.917,15.6626 495.75,17.8293 497,20.5C 497.317,18.6992 497.984,18.3659 499,19.5C 499.759,22.7846 501.092,25.7846 503,28.5C 503.333,28.1667 503.667,27.8333 504,27.5C 505.831,30.9742 507.331,34.1408 508.5,37C 507.199,38.6155 507.199,40.1155 508.5,41.5 Z"/></g>
<g><path style="opacity:0.004" fill="#000000" d="M 26.5,6.5 C 27.8333,7.16667 27.8333,7.16667 26.5,6.5 Z"/></g>
<g><path style="opacity:0.004" fill="#000000" d="M 483.5,6.5 C 484.833,7.16667 484.833,7.16667 483.5,6.5 Z"/></g>
<g><path style="opacity:0.004" fill="#000000" d="M 2.5,41.5 C 1.42654,40.7494 1.25988,39.7494 2,38.5C 2.48278,39.448 2.64945,40.448 2.5,41.5 Z"/></g>
<g><path style="opacity:0.004" fill="#000000" d="M 508.5,41.5 C 508.351,40.448 508.517,39.448 509,38.5C 509.74,39.7494 509.573,40.7494 508.5,41.5 Z"/></g>
<g><path style="opacity:1" fill="#a432ca" d="M 424.5,179.5 C 429.511,179.334 434.511,179.501 439.5,180C 440.022,180.561 440.355,181.228 440.5,182C 440.816,185.94 440.483,189.607 439.5,193C 442.167,194 442.167,195 439.5,196C 440.167,196.333 440.833,196.667 441.5,197C 440.773,199.124 440.106,201.291 439.5,203.5C 440.52,206.633 440.52,209.466 439.5,212C 440.308,212.308 440.975,212.808 441.5,213.5C 440.833,213.833 440.167,214.167 439.5,214.5C 440.025,215.192 440.692,215.692 441.5,216C 440.773,218.124 440.106,220.291 439.5,222.5C 440.52,225.633 440.52,228.466 439.5,231C 441.991,231.626 441.991,232.459 439.5,233.5C 440.025,234.192 440.692,234.692 441.5,235C 440.684,236.923 440.017,238.923 439.5,241C 440.58,244.315 440.58,247.315 439.5,250C 441.991,250.626 441.991,251.459 439.5,252.5C 440.025,253.192 440.692,253.692 441.5,254C 440.684,255.923 440.017,257.923 439.5,260C 440.58,263.315 440.58,266.315 439.5,269C 441.991,269.626 441.991,270.459 439.5,271.5C 440.025,272.192 440.692,272.692 441.5,273C 440.684,274.923 440.017,276.923 439.5,279C 439.639,280.301 440.305,281.134 441.5,281.5C 438.199,287.462 433.866,292.462 428.5,296.5C 427.005,296.585 426.005,295.919 425.5,294.5C 426.093,292.618 426.76,290.785 427.5,289C 427.5,286 427.5,283 427.5,280C 424.833,279 424.833,278 427.5,277C 426.692,276.692 426.025,276.192 425.5,275.5C 426.804,272.217 427.471,269.05 427.5,266C 426.809,264.933 426.309,263.766 426,262.5C 425.667,264.5 425.333,266.5 425,268.5C 424.495,263.455 424.162,258.455 424,253.5C 424.308,254.308 424.808,254.975 425.5,255.5C 426.244,254.009 426.91,252.509 427.5,251C 427.047,248.107 427.047,245.107 427.5,242C 425.009,241.374 425.009,240.541 427.5,239.5C 426.833,238.833 426.167,238.167 425.5,237.5C 426.804,234.217 427.471,231.05 427.5,228C 426.789,226.745 425.956,225.579 425,224.5C 424.5,209.504 424.333,194.504 424.5,179.5 Z"/></g>
<g><path style="opacity:1" fill="#ab2ec8" d="M 424.5,179.5 C 424.5,179.167 424.5,178.833 424.5,178.5C 438.833,178.5 453.167,178.5 467.5,178.5C 467.5,186.833 467.5,195.167 467.5,203.5C 460.5,203.5 453.5,203.5 446.5,203.5C 444.781,227.498 443.781,251.831 443.5,276.5C 442.463,277.93 441.796,279.597 441.5,281.5C 440.305,281.134 439.639,280.301 439.5,279C 440.017,276.923 440.684,274.923 441.5,273C 440.692,272.692 440.025,272.192 439.5,271.5C 441.991,270.459 441.991,269.626 439.5,269C 440.58,266.315 440.58,263.315 439.5,260C 440.017,257.923 440.684,255.923 441.5,254C 440.692,253.692 440.025,253.192 439.5,252.5C 441.991,251.459 441.991,250.626 439.5,250C 440.58,247.315 440.58,244.315 439.5,241C 440.017,238.923 440.684,236.923 441.5,235C 440.692,234.692 440.025,234.192 439.5,233.5C 441.991,232.459 441.991,231.626 439.5,231C 440.52,228.466 440.52,225.633 439.5,222.5C 440.106,220.291 440.773,218.124 441.5,216C 440.692,215.692 440.025,215.192 439.5,214.5C 440.167,214.167 440.833,213.833 441.5,213.5C 440.975,212.808 440.308,212.308 439.5,212C 440.52,209.466 440.52,206.633 439.5,203.5C 440.106,201.291 440.773,199.124 441.5,197C 440.833,196.667 440.167,196.333 439.5,196C 442.167,195 442.167,194 439.5,193C 440.483,189.607 440.816,185.94 440.5,182C 440.355,181.228 440.022,180.561 439.5,180C 434.511,179.501 429.511,179.334 424.5,179.5 Z"/></g>
<g><path style="opacity:1" fill="#164381" d="M 136.5,219.5 C 138.81,218.836 141.31,218.503 144,218.5C 148.112,218.349 151.946,219.016 155.5,220.5C 154.833,220.5 154.167,220.5 153.5,220.5C 147.862,219.78 142.196,219.447 136.5,219.5 Z"/></g>
<g><path style="opacity:1" fill="#5a237b" d="M 416.5,221.5 C 407.493,220.199 398.493,220.199 389.5,221.5C 389.167,221.5 388.833,221.5 388.5,221.5C 397.84,217.559 407.174,217.559 416.5,221.5 Z"/></g>
<g><path style="opacity:1" fill="#094c88" d="M 103.5,219.5 C 96.2413,218.928 89.2413,219.928 82.5,222.5C 84.3854,220.689 86.7187,219.522 89.5,219C 94.3522,218.185 99.0189,218.352 103.5,219.5 Z"/></g>
<g><path style="opacity:1" fill="#114079" d="M 136.5,219.5 C 134.064,220.871 131.397,221.871 128.5,222.5C 130.617,220.345 133.284,219.345 136.5,219.5 Z"/></g>
<g><path style="opacity:1" fill="#3077ed" d="M 153.5,220.5 C 154.167,220.5 154.833,220.5 155.5,220.5C 164.273,222.389 170.606,227.389 174.5,235.5C 175.901,241.396 176.734,247.396 177,253.5C 177.5,269.83 177.667,286.163 177.5,302.5C 171.441,302.746 165.441,302.413 159.5,301.5C 157.496,300.327 155.996,298.66 155,296.5C 154.667,281.167 154.333,265.833 154,250.5C 153.59,249.099 153.09,247.766 152.5,246.5C 153.085,242.418 153.085,238.418 152.5,234.5C 155.167,233.167 155.167,231.833 152.5,230.5C 153.641,229.575 153.641,228.741 152.5,228C 155.167,227 155.167,226 152.5,225C 152.214,223.612 152.548,222.112 153.5,220.5 Z"/></g>
<g><path style="opacity:1" fill="#0890fa" d="M 103.5,219.5 C 106.241,219.707 108.574,220.707 110.5,222.5C 109.883,222.611 109.383,222.944 109,223.5C 104.145,221.977 99.1455,220.977 94,220.5C 92.274,221.648 92.4407,222.815 94.5,224C 93.1667,224.333 91.8333,224.667 90.5,225C 96.7795,225.399 97.1129,227.066 91.5,230C 94.1951,232.951 93.8618,235.618 90.5,238C 92.9732,238.22 94.6398,239.386 95.5,241.5C 84.476,239.987 78.476,244.654 77.5,255.5C 76.5037,270.991 76.1704,286.658 76.5,302.5C 70.4406,302.746 64.4406,302.413 58.5,301.5C 56.0456,299.715 54.3789,297.382 53.5,294.5C 53.5,270.167 53.5,245.833 53.5,221.5C 61.1667,221.5 68.8333,221.5 76.5,221.5C 76.238,222.978 76.5713,224.311 77.5,225.5C 79.0287,224.237 80.6954,223.237 82.5,222.5C 89.2413,219.928 96.2413,218.928 103.5,219.5 Z"/></g>
<g><path style="opacity:1" fill="#1c83f3" d="M 136.5,219.5 C 142.196,219.447 147.862,219.78 153.5,220.5C 152.548,222.112 152.214,223.612 152.5,225C 155.167,226 155.167,227 152.5,228C 153.641,228.741 153.641,229.575 152.5,230.5C 155.167,231.833 155.167,233.167 152.5,234.5C 153.085,238.418 153.085,242.418 152.5,246.5C 147.417,241.41 141.417,240.243 134.5,243C 132.291,244.873 130.458,247.04 129,249.5C 127.554,267.444 127.054,285.444 127.5,303.5C 121.824,303.666 116.157,303.499 110.5,303C 108.667,301.167 106.833,299.333 105,297.5C 103.712,281.567 103.045,265.567 103,249.5C 101.647,245.65 99.1468,242.983 95.5,241.5C 94.6398,239.386 92.9732,238.22 90.5,238C 93.8618,235.618 94.1951,232.951 91.5,230C 97.1129,227.066 96.7795,225.399 90.5,225C 91.8333,224.667 93.1667,224.333 94.5,224C 92.4407,222.815 92.274,221.648 94,220.5C 99.1455,220.977 104.145,221.977 109,223.5C 109.383,222.944 109.883,222.611 110.5,222.5C 114.008,223.663 117.008,225.663 119.5,228.5C 122.013,225.745 125.013,223.745 128.5,222.5C 131.397,221.871 134.064,220.871 136.5,219.5 Z"/></g>
<g><path style="opacity:1" fill="#416ee9" d="M 212.5,269.5 C 213.55,274.426 216.217,278.259 220.5,281C 227.492,281.5 234.492,281.666 241.5,281.5C 234.011,282.329 226.344,282.829 218.5,283C 218.353,284.974 218.019,286.974 217.5,289C 218.308,289.308 218.975,289.808 219.5,290.5C 218.359,291.425 218.359,292.259 219.5,293C 218.833,294 218.167,295 217.5,296C 221.167,297 221.5,298.667 218.5,301C 216.292,301.191 214.292,301.691 212.5,302.5C 211.5,302.5 210.5,302.5 209.5,302.5C 198.496,298.503 191.83,290.836 189.5,279.5C 189.5,277.167 189.5,274.833 189.5,272.5C 189.5,255.5 189.5,238.5 189.5,221.5C 196.833,221.5 204.167,221.5 211.5,221.5C 211.17,237.675 211.504,253.675 212.5,269.5 Z"/></g>
<g><path style="opacity:1" fill="#5563e5" d="M 241.5,221.5 C 249.167,221.5 256.833,221.5 264.5,221.5C 264.5,248.5 264.5,275.5 264.5,302.5C 247.167,302.5 229.833,302.5 212.5,302.5C 214.292,301.691 216.292,301.191 218.5,301C 221.5,298.667 221.167,297 217.5,296C 218.167,295 218.833,294 219.5,293C 218.359,292.259 218.359,291.425 219.5,290.5C 218.975,289.808 218.308,289.308 217.5,289C 218.019,286.974 218.353,284.974 218.5,283C 226.344,282.829 234.011,282.329 241.5,281.5C 241.5,261.5 241.5,241.5 241.5,221.5 Z"/></g>
<g><path style="opacity:1" fill="#6657dc" d="M 276.5,221.5 C 283.833,221.5 291.167,221.5 298.5,221.5C 297.847,239.199 298.514,256.532 300.5,273.5C 301.412,275.595 302.579,277.595 304,279.5C 304.75,280.126 305.584,280.626 306.5,281C 313.492,281.5 320.492,281.666 327.5,281.5C 321.347,282.328 315.013,282.828 308.5,283C 313.023,283.891 313.69,286.057 310.5,289.5C 311.167,290.5 311.833,291.5 312.5,292.5C 311.534,295.47 311.534,298.303 312.5,301C 307.833,301.333 303.167,301.667 298.5,302C 309.161,302.5 319.828,302.667 330.5,302.5C 337.5,302.5 344.5,302.5 351.5,302.5C 333.005,303.662 314.338,303.829 295.5,303C 287.316,299.981 281.649,294.481 278.5,286.5C 278.11,283.161 277.61,279.827 277,276.5C 276.5,258.17 276.333,239.836 276.5,221.5 Z"/></g>
<g><path style="opacity:1" fill="#794dd9" d="M 333.5,221.5 C 335.789,222.058 337.789,223.224 339.5,225C 339.107,250.137 339.107,275.47 339.5,301C 336.305,301.181 333.305,301.681 330.5,302.5C 319.828,302.667 309.161,302.5 298.5,302C 303.167,301.667 307.833,301.333 312.5,301C 311.534,298.303 311.534,295.47 312.5,292.5C 311.833,291.5 311.167,290.5 310.5,289.5C 313.69,286.057 313.023,283.891 308.5,283C 315.013,282.828 321.347,282.328 327.5,281.5C 328.497,261.674 328.83,241.674 328.5,221.5C 330.167,221.5 331.833,221.5 333.5,221.5 Z"/></g>
<g><path style="opacity:1" fill="#7f49d6" d="M 333.5,221.5 C 339.5,221.5 345.5,221.5 351.5,221.5C 351.5,248.5 351.5,275.5 351.5,302.5C 344.5,302.5 337.5,302.5 330.5,302.5C 333.305,301.681 336.305,301.181 339.5,301C 339.107,275.47 339.107,250.137 339.5,225C 337.789,223.224 335.789,222.058 333.5,221.5 Z"/></g>
<g><path style="opacity:1" fill="#9836c9" d="M 424.5,178.5 C 424.5,178.833 424.5,179.167 424.5,179.5C 424.333,194.504 424.5,209.504 425,224.5C 425.956,225.579 426.789,226.745 427.5,228C 427.471,231.05 426.804,234.217 425.5,237.5C 426.167,238.167 426.833,238.833 427.5,239.5C 425.009,240.541 425.009,241.374 427.5,242C 427.047,245.107 427.047,248.107 427.5,251C 426.91,252.509 426.244,254.009 425.5,255.5C 424.808,254.975 424.308,254.308 424,253.5C 424.162,258.455 424.495,263.455 425,268.5C 425.333,266.5 425.667,264.5 426,262.5C 426.309,263.766 426.809,264.933 427.5,266C 427.471,269.05 426.804,272.217 425.5,275.5C 426.025,276.192 426.692,276.692 427.5,277C 424.833,278 424.833,279 427.5,280C 427.5,283 427.5,286 427.5,289C 426.76,290.785 426.093,292.618 425.5,294.5C 426.005,295.919 427.005,296.585 428.5,296.5C 423.351,300.174 417.685,303.007 411.5,305C 405.319,305.819 399.319,305.653 393.5,304.5C 391.485,303.076 389.152,302.41 386.5,302.5C 386.5,301.833 386.167,301.5 385.5,301.5C 385.918,300.778 386.584,300.278 387.5,300C 385.122,299.026 385.456,298.359 388.5,298C 387.167,296.667 385.833,295.333 384.5,294C 385.833,294 387.167,294 388.5,294C 386.854,292.445 386.521,290.779 387.5,289C 386.5,288.667 385.5,288.333 384.5,288C 385.711,286.887 385.711,285.72 384.5,284.5C 385.263,283.281 386.263,282.281 387.5,281.5C 386.975,280.808 386.308,280.308 385.5,280C 386.793,279.51 388.127,279.343 389.5,279.5C 401.022,286.065 411.188,284.398 420,274.5C 426.787,260.785 423.62,250.285 410.5,243C 402.998,240.415 395.998,241.248 389.5,245.5C 388.069,244.554 386.736,243.388 385.5,242C 386.5,241.667 387.5,241.333 388.5,241C 387.167,239.667 385.833,238.333 384.5,237C 385.833,237 387.167,237 388.5,237C 387.526,234.713 386.193,232.713 384.5,231C 385.833,229.333 387.167,227.667 388.5,226C 387.978,225.439 387.645,224.772 387.5,224C 388.509,223.645 389.176,222.812 389.5,221.5C 398.493,220.199 407.493,220.199 416.5,221.5C 418.667,222.269 420.834,223.269 423,224.5C 423.169,208.995 423.669,193.661 424.5,178.5 Z"/></g>
<g><path style="opacity:1" fill="#4a3086" d="M 351.5,221.5 C 345.5,221.5 339.5,221.5 333.5,221.5C 331.833,221.5 330.167,221.5 328.5,221.5C 328.83,241.674 328.497,261.674 327.5,281.5C 327.5,261.167 327.5,240.833 327.5,220.5C 335.684,220.174 343.684,220.508 351.5,221.5 Z"/></g>
<g><path style="opacity:1" fill="#8a40cf" d="M 388.5,221.5 C 388.833,221.5 389.167,221.5 389.5,221.5C 389.176,222.812 388.509,223.645 387.5,224C 387.645,224.772 387.978,225.439 388.5,226C 387.167,227.667 385.833,229.333 384.5,231C 386.193,232.713 387.526,234.713 388.5,237C 387.167,237 385.833,237 384.5,237C 385.833,238.333 387.167,239.667 388.5,241C 387.5,241.333 386.5,241.667 385.5,242C 386.736,243.388 388.069,244.554 389.5,245.5C 378.978,256.729 378.978,268.063 389.5,279.5C 388.127,279.343 386.793,279.51 385.5,280C 386.308,280.308 386.975,280.808 387.5,281.5C 386.263,282.281 385.263,283.281 384.5,284.5C 385.711,285.72 385.711,286.887 384.5,288C 385.5,288.333 386.5,288.667 387.5,289C 386.521,290.779 386.854,292.445 388.5,294C 387.167,294 385.833,294 384.5,294C 385.833,295.333 387.167,296.667 388.5,298C 385.456,298.359 385.122,299.026 387.5,300C 386.584,300.278 385.918,300.778 385.5,301.5C 374.011,296.678 366.345,288.345 362.5,276.5C 360.211,267.599 359.877,258.599 361.5,249.5C 366.013,235.781 375.013,226.448 388.5,221.5 Z"/></g>
<g><path style="opacity:1" fill="#75208a" d="M 446.5,203.5 C 446.667,224.836 446.5,246.169 446,267.5C 445.594,270.742 444.761,273.742 443.5,276.5C 443.781,251.831 444.781,227.498 446.5,203.5 Z"/></g>
<g><path style="opacity:1" fill="#003d68" d="M 76.5,221.5 C 68.8333,221.5 61.1667,221.5 53.5,221.5C 53.5,245.833 53.5,270.167 53.5,294.5C 52.5023,270.006 52.169,245.339 52.5,220.5C 60.6841,220.174 68.6841,220.508 76.5,221.5 Z"/></g>
<g><path style="opacity:1" fill="#0e1a37" d="M 188.5,221.5 C 188.17,238.675 188.503,255.675 189.5,272.5C 189.5,274.833 189.5,277.167 189.5,279.5C 188.691,277.708 188.191,275.708 188,273.5C 187.171,255.995 187.338,238.662 188.5,221.5 Z"/></g>
<g><path style="opacity:1" fill="#423589" d="M 275.5,221.5 C 283.316,220.508 291.316,220.174 299.5,220.5C 299.194,238.214 299.527,255.88 300.5,273.5C 298.514,256.532 297.847,239.199 298.5,221.5C 291.167,221.5 283.833,221.5 276.5,221.5C 276.167,221.5 275.833,221.5 275.5,221.5 Z"/></g>
<g><path style="opacity:1" fill="#030104" d="M 389.5,279.5 C 378.978,268.063 378.978,256.729 389.5,245.5C 395.998,241.248 402.998,240.415 410.5,243C 423.62,250.285 426.787,260.785 420,274.5C 411.188,284.398 401.022,286.065 389.5,279.5 Z"/></g>
<g><path style="opacity:1" fill="#29499a" d="M 212.5,269.5 C 211.504,253.675 211.17,237.675 211.5,221.5C 204.167,221.5 196.833,221.5 189.5,221.5C 189.5,238.5 189.5,255.5 189.5,272.5C 188.503,255.675 188.17,238.675 188.5,221.5C 196.316,220.508 204.316,220.174 212.5,220.5C 212.5,236.833 212.5,253.167 212.5,269.5 Z"/></g>
<g><path style="opacity:1" fill="#31357c" d="M 241.5,221.5 C 249.316,220.508 257.316,220.174 265.5,220.5C 265.5,248.167 265.5,275.833 265.5,303.5C 246.659,303.83 227.993,303.497 209.5,302.5C 210.5,302.5 211.5,302.5 212.5,302.5C 229.833,302.5 247.167,302.5 264.5,302.5C 264.5,275.5 264.5,248.5 264.5,221.5C 256.833,221.5 249.167,221.5 241.5,221.5 Z"/></g>
<g><path style="opacity:1" fill="#2b5dbd" d="M 174.5,235.5 C 176.132,238.558 177.299,241.891 178,245.5C 178.5,264.83 178.667,284.164 178.5,303.5C 172.491,303.666 166.491,303.499 160.5,303C 159.944,302.617 159.611,302.117 159.5,301.5C 165.441,302.413 171.441,302.746 177.5,302.5C 177.667,286.163 177.5,269.83 177,253.5C 176.734,247.396 175.901,241.396 174.5,235.5 Z"/></g>
<g><path style="opacity:1" fill="#514cbb" d="M 275.5,221.5 C 275.833,221.5 276.167,221.5 276.5,221.5C 276.333,239.836 276.5,258.17 277,276.5C 277.61,279.827 278.11,283.161 278.5,286.5C 277.224,284.438 276.39,282.104 276,279.5C 275.5,260.17 275.333,240.836 275.5,221.5 Z"/></g>
<g><path style="opacity:1" fill="#50297f" d="M 361.5,249.5 C 359.877,258.599 360.211,267.599 362.5,276.5C 361.883,276.389 361.383,276.056 361,275.5C 358.849,266.633 359.016,257.967 361.5,249.5 Z"/></g>
<g><path style="opacity:1" fill="#054980" d="M 77.5,255.5 C 77.5,271.5 77.5,287.5 77.5,303.5C 71.4908,303.666 65.4908,303.499 59.5,303C 58.944,302.617 58.6107,302.117 58.5,301.5C 64.4406,302.413 70.4406,302.746 76.5,302.5C 76.1704,286.658 76.5037,270.991 77.5,255.5 Z"/></g>
<g><path style="opacity:1" fill="#522274" d="M 386.5,302.5 C 389.152,302.41 391.485,303.076 393.5,304.5C 390.848,304.59 388.515,303.924 386.5,302.5 Z"/></g>
</svg>
