<svg width="16" height="16" viewBox="0 0 16 16" fill="none" xmlns="http://www.w3.org/2000/svg">
<g id="Spotify">
<circle id="Vector" cx="8" cy="8" r="7" fill="#1ED760"/>
<path id="Vector_2" d="M11.1822 10.8115C11.0626 11.0012 10.8074 11.0544 10.6081 10.9405C9.03748 10.0297 7.06819 9.82472 4.74012 10.3257C4.51688 10.3712 4.29364 10.2422 4.2458 10.0297C4.19796 9.81713 4.3335 9.6046 4.55674 9.55906C7.10008 9.00496 9.28464 9.24026 11.0387 10.265C11.238 10.3788 11.3018 10.6217 11.1822 10.8115ZM11.9954 9.08086C11.8439 9.31616 11.525 9.38448 11.2778 9.24785C9.48396 8.19278 6.74927 7.88917 4.6285 8.50399C4.34945 8.57989 4.06243 8.43568 3.9827 8.1776C3.90297 7.91194 4.05445 7.63868 4.3335 7.56278C6.75725 6.86446 9.77098 7.19844 11.8359 8.40531C12.0672 8.54194 12.1469 8.84556 11.9954 9.08086ZM12.0672 7.27434C9.91449 6.05987 6.36658 5.94602 4.30958 6.53807C3.9827 6.63675 3.63189 6.46217 3.52825 6.14337C3.4246 5.83216 3.61595 5.49818 3.94283 5.39951C6.30279 4.71637 10.2254 4.853 12.697 6.24963C12.992 6.41662 13.0877 6.78096 12.9123 7.06181C12.7448 7.35025 12.3622 7.44892 12.0672 7.27434Z" fill="white"/>
</g>
</svg>
