<svg width="16" height="16" viewBox="0 0 16 16" fill="none" xmlns="http://www.w3.org/2000/svg">
<g id="tiktok">
<path id="Vector" d="M4.22548 9.89657C4.30361 9.24962 4.56895 8.8874 5.06896 8.51608C5.78439 8.01318 6.67807 8.29765 6.67807 8.29765V6.61007C6.89533 6.60452 7.11268 6.6174 7.32757 6.64856V8.82031C7.32757 8.82031 6.43416 8.53584 5.71874 9.03899C5.21899 9.41005 4.95311 9.77253 4.87525 10.4195C4.87281 10.7708 4.93874 11.23 5.24233 11.6271C5.16726 11.5886 5.09076 11.5447 5.0128 11.4955C4.34404 11.0464 4.22222 10.3727 4.22548 9.89657ZM11.0176 3.48974C10.5254 2.95044 10.3393 2.40594 10.272 2.02344H10.8911C10.8911 2.02344 10.7677 3.02637 11.6674 4.01265L11.6798 4.02591C11.4374 3.87339 11.215 3.69336 11.0176 3.48974ZM14 5.0187V7.14677C14 7.14677 13.21 7.11583 12.6253 6.96709C11.809 6.75907 11.2843 6.44001 11.2843 6.44001C11.2843 6.44001 10.9218 6.21249 10.8925 6.19663V10.5911C10.8925 10.8358 10.8255 11.4469 10.6212 11.9565C10.3545 12.6232 9.94294 13.0608 9.86725 13.1503C9.86725 13.1503 9.36669 13.7419 8.4836 14.1402C7.68759 14.4996 6.98871 14.4905 6.77981 14.4996C6.77981 14.4996 5.57169 14.5474 4.48457 13.8409C4.24949 13.6852 4.03005 13.5088 3.8291 13.3141L3.83453 13.318C4.92192 14.0245 6.12976 13.9767 6.12976 13.9767C6.33894 13.9676 7.03782 13.9767 7.83355 13.6173C8.71583 13.2189 9.2172 12.6274 9.2172 12.6274C9.29208 12.5379 9.70555 12.1003 9.97116 11.4333C10.1749 10.9239 10.2425 10.3126 10.2425 10.0679V5.67397C10.2718 5.69009 10.634 5.91762 10.634 5.91762C10.634 5.91762 11.1589 6.23693 11.9753 6.44469C12.5602 6.59343 13.35 6.62437 13.35 6.62437V4.95681C13.6202 5.0174 13.8505 5.03378 14 5.0187Z" fill="#EE1D52"/>
<path id="Vector_2" d="M13.3504 4.95681V6.62385C13.3504 6.62385 12.5607 6.59291 11.9757 6.44417C11.1594 6.23615 10.6344 5.9171 10.6344 5.9171C10.6344 5.9171 10.2722 5.68957 10.2429 5.67345V10.0684C10.2429 10.3131 10.1759 10.9245 9.97161 11.4339C9.70492 12.1008 9.29335 12.5384 9.21765 12.6279C9.21765 12.6279 8.71683 13.2195 7.834 13.6178C7.03827 13.9772 6.33939 13.9681 6.13021 13.9772C6.13021 13.9772 4.92236 14.025 3.83498 13.3185L3.82955 13.3146C3.71475 13.2035 3.60668 13.0861 3.50588 12.9631C3.15889 12.54 2.94618 12.0397 2.89274 11.897C2.89264 11.8964 2.89264 11.8957 2.89274 11.8951C2.80673 11.6471 2.62604 11.0513 2.65073 10.4743C2.69441 9.45634 3.05253 8.83149 3.14722 8.67495C3.39799 8.24808 3.72414 7.86616 4.11116 7.54617C4.45269 7.27005 4.8398 7.05036 5.25661 6.8961C5.7072 6.71498 6.1897 6.6179 6.67824 6.61007V8.29765C6.67824 8.29765 5.78457 8.01422 5.06941 8.51608C4.5694 8.8874 4.30406 9.24962 4.22593 9.89657C4.22267 10.3727 4.34449 11.0464 5.01271 11.4957C5.09066 11.5451 5.16717 11.589 5.24223 11.6273C5.35897 11.7791 5.50106 11.9113 5.66275 12.0187C6.31551 12.4318 6.86246 12.4607 7.56188 12.1924C8.02825 12.0129 8.37932 11.6086 8.54211 11.1606C8.64439 10.8808 8.64303 10.5992 8.64303 10.3079V2.02344H10.2709C10.3381 2.40594 10.5243 2.95044 11.0164 3.48974C11.2138 3.69336 11.4362 3.87339 11.6787 4.02591C11.7503 4.10002 12.1165 4.4664 12.5867 4.69132C12.8298 4.80759 13.0861 4.89667 13.3504 4.95681Z" fill="black"/>
<path id="Vector_3" d="M2.24512 11.3789V11.3802L2.28551 11.4897C2.28087 11.4769 2.26586 11.4382 2.24512 11.3789Z" fill="#69C9D0"/>
<path id="Vector_4" d="M5.25641 6.89631C4.8396 7.05057 4.45249 7.27026 4.11096 7.54638C3.72381 7.86709 3.39774 8.24982 3.14729 8.6775C3.0526 8.83352 2.69448 9.45889 2.6508 10.4769C2.62611 11.0539 2.8068 11.6496 2.89281 11.8977C2.89271 11.8983 2.89271 11.8989 2.89281 11.8995C2.94707 12.041 3.15896 12.5413 3.50595 12.9656C3.60675 13.0886 3.71482 13.206 3.82962 13.3172C3.46178 13.0734 3.13373 12.7786 2.85618 12.4424C2.51217 12.023 2.30001 11.5279 2.24466 11.3818C2.2446 11.3808 2.2446 11.3797 2.24466 11.3787V11.3769C2.15839 11.129 1.97716 10.5331 2.00239 9.95528C2.04607 8.93727 2.40419 8.31242 2.49887 8.15589C2.74925 7.72815 3.07533 7.34541 3.46255 7.02477C3.804 6.74855 4.19113 6.52885 4.60799 6.3747C4.86801 6.2713 5.13888 6.19502 5.41594 6.14717C5.83346 6.07732 6.2599 6.07126 6.6794 6.12923V6.61028C6.1904 6.61795 5.70742 6.71503 5.25641 6.89631Z" fill="#69C9D0"/>
<path id="Vector_5" d="M10.2719 2.02318H8.64407V10.3079C8.64407 10.5992 8.64407 10.88 8.54315 11.1606C8.37873 11.6083 8.02902 12.0127 7.56292 12.1921C6.86323 12.4615 6.31628 12.4316 5.66379 12.0184C5.50182 11.9115 5.35937 11.7797 5.24219 11.6284C5.79809 11.9126 6.29566 11.9076 6.91206 11.6705C7.37789 11.4911 7.72815 11.0867 7.89201 10.6387C7.99457 10.3589 7.99321 10.0773 7.99321 9.78631V1.5H10.241C10.241 1.5 10.2157 1.70594 10.2719 2.02318ZM13.3501 4.49552V4.95655C13.0862 4.89631 12.8304 4.80723 12.5877 4.69106C12.1176 4.46614 11.7513 4.09976 11.6797 4.02565C11.7628 4.07795 11.849 4.12553 11.938 4.16815C12.5096 4.4417 13.0726 4.52335 13.3501 4.49552Z" fill="#69C9D0"/>
</g>
</svg>
