<svg xmlns="http://www.w3.org/2000/svg" width="77" height="16" viewBox="0 0 77 16" fill="none">
  <path fill-rule="evenodd" clip-rule="evenodd" d="M0.707764 15.8631V0H3.28184V8.18083L10.4681 0H13.6018L7.84865 6.66212L14.0272 15.8631H10.9152L5.99013 8.58845L3.28184 11.6708V15.8631H0.707764ZM33.2155 4.12439C35.7679 4.12439 37.8495 5.52913 37.8495 9.40476V9.40579V15.8641H35.4313V9.6096C35.4313 7.41051 34.468 6.23254 32.6776 6.23254C30.7747 6.23254 29.611 7.66031 29.611 9.99423V15.8631H27.1929V0H29.611V5.93782C30.3276 4.9407 31.4241 4.12439 33.2155 4.12439ZM58.5928 4.12439C61.1224 4.12439 63.204 5.52913 63.204 9.40476V15.8631H60.7642V9.60857C60.7642 7.40944 59.8462 6.2315 58.0331 6.2315C56.1085 6.2315 54.9666 7.65928 54.9666 10.0162V15.8631H52.5484V4.26025H54.6527L54.9212 5.77893C55.6377 4.87172 56.7342 4.12439 58.5928 4.12439ZM75.8007 13.733H76.2922V15.8631H75.016C73.4486 15.8631 72.9117 15.1607 72.9117 14.0047C72.1508 15.1827 70.9871 15.9989 69.1286 15.9989C66.6216 15.9989 64.8756 14.7531 64.8756 12.5999C64.8756 10.22 66.5772 8.88321 69.778 8.88321H72.666V8.18083C72.666 6.88896 71.7481 6.09564 70.159 6.09564C68.7269 6.09564 67.7636 6.77502 67.585 7.79514H65.2122C65.458 5.52913 67.3836 4.12439 70.2716 4.12439C73.3165 4.12439 75.0625 5.59812 75.0625 8.33969V12.9856C75.0625 13.5741 75.3082 13.733 75.8007 13.733ZM72.666 11.1043V10.6966H69.6665C68.1663 10.6966 67.3382 11.2631 67.3382 12.4411C67.3382 13.4162 68.1446 14.0956 69.4652 14.0956C71.4796 14.0956 72.6433 12.8947 72.666 11.1043ZM47.8267 4.26128V10.0622V10.0632C47.8267 12.4651 46.6403 13.8699 44.8717 13.8699C43.1029 13.8699 42.2078 12.7139 42.2078 10.4479V4.26128H39.7896V10.7196C39.7896 14.6851 41.8722 16 44.312 16C46.0807 16 47.1328 15.2757 47.8494 14.3914L48.1179 15.8641H50.2449V4.26128H47.8267ZM25.9559 13.733H25.4644C24.9719 13.733 24.7262 13.5751 24.7262 12.9856V8.33969C24.7262 5.59708 22.9802 4.12439 19.9353 4.12439C17.0474 4.12439 15.1217 5.52913 14.876 7.79514H17.2487C17.4273 6.77502 18.3896 6.09564 19.8228 6.09564C21.4118 6.09564 22.3297 6.88896 22.3297 8.18083V8.88321H19.4418C16.241 8.88321 14.5394 10.22 14.5394 12.5999C14.5394 14.7531 16.2854 15.9989 18.7923 15.9989C20.6498 15.9989 21.8145 15.1827 22.5755 14.0047C22.5755 15.1607 23.1123 15.8631 24.6797 15.8631H25.9559V13.733ZM22.3287 10.6966V11.1043C22.307 12.8947 21.1423 14.0956 19.1279 14.0956C17.8073 14.0956 17.0009 13.4152 17.0009 12.4411C17.0009 11.2631 17.829 10.6966 19.3292 10.6966H22.3287Z" fill="#111111"/>
</svg>