<svg xmlns="http://www.w3.org/2000/svg" width="48" height="48" viewBox="0 0 48 48" fill="none">
  <rect x="4" y="4" width="40" height="40" rx="8" fill="#F7F7F7"/>
  <path d="M30.8005 13H17.1995C16.5372 13 16 13.5479 16 14.2216V33.7768C16 34.4521 16.538 35 17.1995 35H30.8005C31.4635 35 32 34.4521 32 33.7784V14.2216C32 13.5464 31.462 13 30.8005 13ZM26.595 17.2286V31.5178C26.595 32.1314 26.1478 32.6501 25.5492 32.7292L18.9789 33.5989C18.2608 33.6938 17.6241 33.1245 17.6241 32.3876V15.7453C17.6241 14.9633 18.3337 14.3829 19.0837 14.5521L25.654 16.0354C26.2029 16.1588 26.5942 16.6545 26.5942 17.2286H26.5958H26.595Z" fill="#111111"/>
</svg>