<svg xmlns="http://www.w3.org/2000/svg" width="88" height="88" viewBox="0 0 88 88" fill="none">
  <g clip-path="url(#clip0_4001_21322)">
    <path d="M59.0563 20.0887H28.9455C27.4794 20.0887 26.29 21.2798 26.29 22.7442V65.2523C26.29 66.7201 27.4811 67.9112 28.9455 67.9112H59.0563C60.5241 67.9112 61.7118 66.7202 61.7118 65.2558V22.7442C61.7118 21.2764 60.5207 20.0887 59.0563 20.0887ZM49.7458 29.2806V60.3419C49.7458 61.6756 48.7558 62.8031 47.4307 62.975L32.8849 64.8656C31.295 65.0719 29.8857 63.8344 29.8857 62.2325V26.0562C29.8857 24.3564 31.4566 23.0948 33.1169 23.4627L47.6627 26.687C48.8778 26.9552 49.7441 28.0328 49.7441 29.2806H49.7475H49.7458Z" fill="#F3F3F3"/>
  </g>
  <defs>
    <clipPath id="clip0_4001_21322">
      <rect width="88" height="88" fill="white"/>
    </clipPath>
  </defs>
</svg>