<svg xmlns="http://www.w3.org/2000/svg" width="48" height="48" viewBox="0 0 48 48" fill="none">
  <g clip-path="url(#clip0_4002_7556)">
    <rect width="48" height="48" rx="8" fill="white"/>
    <path d="M31.6506 12H16.3494C15.6044 12 15 12.5978 15 13.3327V34.6656C15 35.4022 15.6053 36 16.3494 36H31.6506C32.3965 36 33 35.4022 33 34.6673V13.3327C33 12.596 32.3947 12 31.6506 12ZM26.9194 16.613V32.2013C26.9194 32.8706 26.4163 33.4365 25.7429 33.5227L18.3513 34.4715C17.5434 34.575 16.8272 33.954 16.8272 33.1501V14.9948C16.8272 14.1417 17.6255 13.5086 18.4692 13.6932L25.8608 15.3114C26.4783 15.4459 26.9185 15.9868 26.9185 16.613H26.9202H26.9194Z" fill="#111111"/>
  </g>
  <defs>
    <clipPath id="clip0_4002_7556">
      <rect width="48" height="48" fill="white"/>
    </clipPath>
  </defs>
</svg>