<svg xmlns="http://www.w3.org/2000/svg" width="72" height="72" viewBox="0 0 72 72" fill="none">
  <g clip-path="url(#clip0_4001_25558)">
    <path d="M68.5322 0H3.46781C1.55259 0 0 1.55259 0 3.46781V68.5322C0 70.4474 1.55259 72 3.46781 72H68.5322C70.4474 72 72 70.4474 72 68.5322V3.46781C72 1.55259 70.4474 0 68.5322 0Z" fill="#111111"/>
    <path d="M48.3185 16.4362H23.6824C22.4829 16.4362 21.5098 17.4107 21.5098 18.6089V53.3882C21.5098 54.5892 22.4843 55.5637 23.6824 55.5637H48.3185C49.5195 55.5637 50.4912 54.5892 50.4912 53.3911V18.6089C50.4912 17.4079 49.5166 16.4362 48.3185 16.4362ZM40.7009 23.9568V49.3706C40.7009 50.4618 39.8909 51.3843 38.8066 51.525L26.9055 53.0718C25.6048 53.2406 24.4516 52.2281 24.4516 50.9175V21.3187C24.4516 19.9279 25.737 18.8957 27.0954 19.1967L38.9965 21.8348C39.9907 22.0542 40.6995 22.9359 40.6995 23.9568H40.7023H40.7009Z" fill="white"/>
  </g>
  <defs>
    <clipPath id="clip0_4001_25558">
      <rect width="72" height="72" fill="white"/>
    </clipPath>
  </defs>
</svg>