<svg xmlns="http://www.w3.org/2000/svg" width="88" height="88" viewBox="0 0 88 88" fill="none">
    <g clip-path="url(#clip0_186_2030)">
        <path d="M0 13.75C0 6.15609 6.15609 0 13.75 0H74.25C81.8439 0 88 6.15609 88 13.75V74.25C88 81.8439 81.8439 88 74.25 88H13.75C6.15609 88 0 81.8439 0 74.25V13.75Z"
              fill="#111111"/>
        <path fill-rule="evenodd" clip-rule="evenodd"
              d="M32.2133 28.2489V23.7515L36.1429 21.4987L40.0726 19.25V23.7515V28.2489V32.7504V37.2519L36.1429 39.5006L32.2139 41.7489L32.2144 41.7492L36.144 44.002L40.0736 46.2507V50.7522V55.2496V59.7511V64.2526L36.144 66.5013L32.2144 68.75V64.2526V59.7511V55.2496V50.7522L28.2847 53.0009L24.3593 55.2496V59.7511V64.2526L20.4296 66.5013L16.5 68.75V64.2526V59.7511V55.2496V50.7522L20.4296 48.4994L24.3593 46.2507L20.4296 44.002L16.5 41.7492V37.2518V32.7503L20.4296 30.5016L24.3593 28.2488V32.7503V37.2518L28.2847 39.5005L32.2133 41.7486V37.2519V32.7504V28.2489ZM55.7856 32.7504V28.2489V23.7515L51.8601 21.4987L47.9305 19.25V23.7515V28.2489V32.7504V37.2519L51.8601 39.5006L55.7856 41.7493L51.8601 44.002L47.9305 46.2507V50.7522V55.2496V59.7511V64.2526L51.8601 66.5013L55.7856 68.75V64.2526V59.7511V56.7515V55.2496V50.7522L59.7153 53.0009L63.6449 55.2496V59.7511V64.2526L67.5745 66.5013L71.5 68.75V64.2526V59.7511V55.2496V50.7522L67.5745 48.4994L63.6449 46.2507L67.5745 44.002L71.5 41.7492V37.2518V32.7503L67.5745 30.5016L63.6449 28.2488V32.7503V37.2518L59.7153 39.5005L55.7856 41.7492V37.2519V32.7504ZM40.3712 40.265C41.2017 38.2759 43.5004 37.3314 45.5055 38.1553C47.5106 38.9792 48.4627 41.2595 47.6322 43.2486C46.8017 45.2377 44.503 46.1823 42.4979 45.3584C40.4928 44.5345 39.5407 42.2541 40.3712 40.265Z"
              fill="white"/>
    </g>
    <defs>
        <clipPath id="clip0_186_2030">
            <rect width="88" height="88" fill="white"/>
        </clipPath>
    </defs>
</svg>