<svg xmlns="http://www.w3.org/2000/svg" width="20" height="20" viewBox="0 0 20 20" fill="none">
  <path fill-rule="evenodd" clip-rule="evenodd" d="M8.5 3C5.46243 3 3 5.46243 3 8.5C3 11.5376 5.46243 14 8.5 14C9.65751 14 10.7315 13.6424 11.6176 13.0317L15.2929 16.7071C15.6834 17.0976 16.3166 17.0976 16.7071 16.7071C17.0976 16.3165 17.0976 15.6834 16.7071 15.2928L13.0318 11.6175C13.6424 10.7315 14 9.65749 14 8.5C14 5.46243 11.5376 3 8.5 3ZM5 8.5C5 6.567 6.567 5 8.5 5C10.433 5 12 6.567 12 8.5C12 10.433 10.433 12 8.5 12C6.567 12 5 10.433 5 8.5Z" fill="black"/>
</svg>