<svg width="12" height="12" viewBox="0 0 12 12" fill="none" xmlns="http://www.w3.org/2000/svg">
    <g id="dots, grid, slide">
        <path id="Vector" fill-rule="evenodd" clip-rule="evenodd"
              d="M4 5C4.55228 5 5 4.55228 5 4C5 3.44772 4.55228 3 4 3C3.44772 3 3 3.44772 3 4C3 4.55228 3.44772 5 4 5ZM4 9C4.55228 9 5 8.55229 5 8C5 7.44772 4.55228 7 4 7C3.44772 7 3 7.44772 3 8C3 8.55229 3.44772 9 4 9ZM9 8C9 8.55229 8.55229 9 8 9C7.44772 9 7 8.55229 7 8C7 7.44772 7.44772 7 8 7C8.55229 7 9 7.44772 9 8ZM8 5C8.55229 5 9 4.55228 9 4C9 3.44772 8.55229 3 8 3C7.44772 3 7 3.44772 7 4C7 4.55228 7.44772 5 8 5Z"
              fill="#111111"/>
    </g>
</svg>
