<svg width="20" height="20" viewBox="0 0 20 20" fill="none" xmlns="http://www.w3.org/2000/svg">
<g id="tracks">
<path id="Vector" fill-rule="evenodd" clip-rule="evenodd" d="M4.58398 9.99984C4.58398 8.15889 6.07637 6.6665 7.91732 6.6665C8.22791 6.6665 8.52857 6.70898 8.81383 6.78845C8.00161 7.61543 7.50065 8.74913 7.50065 9.99984C7.50065 11.2505 8.00161 12.3842 8.81383 13.2112C8.52857 13.2907 8.22791 13.3332 7.91732 13.3332C6.07637 13.3332 4.58398 11.8408 4.58398 9.99984ZM10.0007 14.0834C9.3756 14.4029 8.6675 14.5832 7.91732 14.5832C5.38601 14.5832 3.33398 12.5311 3.33398 9.99984C3.33398 7.46853 5.38601 5.4165 7.91732 5.4165C8.6675 5.4165 9.3756 5.59674 10.0007 5.91626C10.6257 5.59674 11.3338 5.4165 12.084 5.4165C14.6153 5.4165 16.6673 7.46853 16.6673 9.99984C16.6673 12.5311 14.6153 14.5832 12.084 14.5832C11.3338 14.5832 10.6257 14.4029 10.0007 14.0834ZM11.1875 6.78845C11.4727 6.70898 11.7734 6.6665 12.084 6.6665C13.9249 6.6665 15.4173 8.15889 15.4173 9.99984C15.4173 11.8408 13.9249 13.3332 12.084 13.3332C11.7734 13.3332 11.4727 13.2907 11.1875 13.2112C11.9997 12.3842 12.5007 11.2505 12.5007 9.99984C12.5007 8.74913 11.9997 7.61543 11.1875 6.78845ZM10.0007 7.3976C10.7627 8.00848 11.2507 8.94718 11.2507 9.99984C11.2507 11.0525 10.7627 11.9912 10.0007 12.6021C9.2386 11.9912 8.75065 11.0525 8.75065 9.99984C8.75065 8.94718 9.2386 8.00848 10.0007 7.3976Z" fill="#111111"/>
</g>
</svg>
